<mxfile host="app.diagrams.net" modified="2023-10-18T20:41:01.613Z" agent="Mozilla/5.0 (Windows NT 10.0; Win64; x64) AppleWebKit/537.36 (KHTML, like Gecko) Chrome/118.0.0.0 Safari/537.36" etag="6WTI89t2ZsmGuiylFaaL" version="22.0.4" type="device">
  <diagram name="PÃ¡gina-1" id="BrvSZpqvP0RBnrd6Dw7m">
    <mxGraphModel dx="1028" dy="622" grid="1" gridSize="10" guides="1" tooltips="1" connect="1" arrows="1" fold="1" page="1" pageScale="1" pageWidth="827" pageHeight="1169" math="0" shadow="0">
      <root>
        <mxCell id="0" />
        <mxCell id="1" parent="0" />
        <mxCell id="ssxeLvnSIk8vrv7X1oER-1" value="APLICACION" style="swimlane;fontStyle=0;childLayout=stackLayout;horizontal=1;startSize=30;horizontalStack=0;resizeParent=1;resizeParentMax=0;resizeLast=0;collapsible=1;marginBottom=0;whiteSpace=wrap;html=1;" vertex="1" parent="1">
          <mxGeometry x="20" y="20" width="140" height="150" as="geometry" />
        </mxCell>
        <mxCell id="ssxeLvnSIk8vrv7X1oER-2" value="-&amp;nbsp;" style="text;strokeColor=none;fillColor=none;align=left;verticalAlign=top;spacingLeft=4;spacingRight=4;overflow=hidden;points=[[0,0.5],[1,0.5]];portConstraint=eastwest;rotatable=0;whiteSpace=wrap;html=1;" vertex="1" parent="ssxeLvnSIk8vrv7X1oER-1">
          <mxGeometry y="30" width="140" height="30" as="geometry" />
        </mxCell>
        <mxCell id="ssxeLvnSIk8vrv7X1oER-4" value="+ crearTransaccion()&lt;br&gt;+ resumen(Fecha f1, Fecha f2)&lt;br&gt;+ listadoTPerdida()&lt;br&gt;+ listadoTGanancia()" style="text;strokeColor=default;fillColor=none;align=left;verticalAlign=top;spacingLeft=4;spacingRight=4;overflow=hidden;points=[[0,0.5],[1,0.5]];portConstraint=eastwest;rotatable=0;whiteSpace=wrap;html=1;" vertex="1" parent="ssxeLvnSIk8vrv7X1oER-1">
          <mxGeometry y="60" width="140" height="90" as="geometry" />
        </mxCell>
        <mxCell id="ssxeLvnSIk8vrv7X1oER-5" value="TRANSACCION" style="swimlane;fontStyle=0;childLayout=stackLayout;horizontal=1;startSize=30;horizontalStack=0;resizeParent=1;resizeParentMax=0;resizeLast=0;collapsible=1;marginBottom=0;whiteSpace=wrap;html=1;" vertex="1" parent="1">
          <mxGeometry x="343" y="25" width="140" height="180" as="geometry" />
        </mxCell>
        <mxCell id="ssxeLvnSIk8vrv7X1oER-6" value="- codigo: int&lt;br&gt;- fecha: Fecha&lt;br&gt;- monto: float" style="text;strokeColor=none;fillColor=none;align=left;verticalAlign=top;spacingLeft=4;spacingRight=4;overflow=hidden;points=[[0,0.5],[1,0.5]];portConstraint=eastwest;rotatable=0;whiteSpace=wrap;html=1;" vertex="1" parent="ssxeLvnSIk8vrv7X1oER-5">
          <mxGeometry y="30" width="140" height="60" as="geometry" />
        </mxCell>
        <mxCell id="ssxeLvnSIk8vrv7X1oER-7" value="+ ganancia(): float&lt;br&gt;+ listarInfo()&lt;br&gt;+&amp;nbsp;getObra(): Obra&lt;br&gt;+ getMonto(): float&lt;br&gt;+ getFecha(): Fecha" style="text;strokeColor=default;fillColor=none;align=left;verticalAlign=top;spacingLeft=4;spacingRight=4;overflow=hidden;points=[[0,0.5],[1,0.5]];portConstraint=eastwest;rotatable=0;whiteSpace=wrap;html=1;" vertex="1" parent="ssxeLvnSIk8vrv7X1oER-5">
          <mxGeometry y="90" width="140" height="90" as="geometry" />
        </mxCell>
        <mxCell id="ssxeLvnSIk8vrv7X1oER-8" value="OBRA" style="swimlane;fontStyle=0;childLayout=stackLayout;horizontal=1;startSize=30;horizontalStack=0;resizeParent=1;resizeParentMax=0;resizeLast=0;collapsible=1;marginBottom=0;whiteSpace=wrap;html=1;" vertex="1" parent="1">
          <mxGeometry x="660" y="25" width="140" height="180" as="geometry" />
        </mxCell>
        <mxCell id="ssxeLvnSIk8vrv7X1oER-9" value="- codigo: int&lt;br&gt;- nombre: string&lt;br&gt;- creador: string&lt;br&gt;- monto_sugerido: float" style="text;strokeColor=none;fillColor=none;align=left;verticalAlign=top;spacingLeft=4;spacingRight=4;overflow=hidden;points=[[0,0.5],[1,0.5]];portConstraint=eastwest;rotatable=0;whiteSpace=wrap;html=1;" vertex="1" parent="ssxeLvnSIk8vrv7X1oER-8">
          <mxGeometry y="30" width="140" height="90" as="geometry" />
        </mxCell>
        <mxCell id="ssxeLvnSIk8vrv7X1oER-10" value="+ listarInfo()" style="text;strokeColor=default;fillColor=none;align=left;verticalAlign=top;spacingLeft=4;spacingRight=4;overflow=hidden;points=[[0,0.5],[1,0.5]];portConstraint=eastwest;rotatable=0;whiteSpace=wrap;html=1;" vertex="1" parent="ssxeLvnSIk8vrv7X1oER-8">
          <mxGeometry y="120" width="140" height="60" as="geometry" />
        </mxCell>
        <mxCell id="ssxeLvnSIk8vrv7X1oER-11" value="" style="triangle;whiteSpace=wrap;html=1;rotation=-90;" vertex="1" parent="1">
          <mxGeometry x="404" y="199" width="19.38" height="23.33" as="geometry" />
        </mxCell>
        <mxCell id="ssxeLvnSIk8vrv7X1oER-12" value="COMPRA" style="swimlane;fontStyle=0;childLayout=stackLayout;horizontal=1;startSize=30;horizontalStack=0;resizeParent=1;resizeParentMax=0;resizeLast=0;collapsible=1;marginBottom=0;whiteSpace=wrap;html=1;" vertex="1" parent="1">
          <mxGeometry x="264" y="240" width="140" height="180" as="geometry" />
        </mxCell>
        <mxCell id="ssxeLvnSIk8vrv7X1oER-13" value="-&amp;nbsp;" style="text;strokeColor=none;fillColor=none;align=left;verticalAlign=top;spacingLeft=4;spacingRight=4;overflow=hidden;points=[[0,0.5],[1,0.5]];portConstraint=eastwest;rotatable=0;whiteSpace=wrap;html=1;" vertex="1" parent="ssxeLvnSIk8vrv7X1oER-12">
          <mxGeometry y="30" width="140" height="90" as="geometry" />
        </mxCell>
        <mxCell id="ssxeLvnSIk8vrv7X1oER-14" value="+ listarInfo()&lt;br&gt;+ ganancia(): float" style="text;strokeColor=default;fillColor=none;align=left;verticalAlign=top;spacingLeft=4;spacingRight=4;overflow=hidden;points=[[0,0.5],[1,0.5]];portConstraint=eastwest;rotatable=0;whiteSpace=wrap;html=1;" vertex="1" parent="ssxeLvnSIk8vrv7X1oER-12">
          <mxGeometry y="120" width="140" height="60" as="geometry" />
        </mxCell>
        <mxCell id="ssxeLvnSIk8vrv7X1oER-15" value="VENTA" style="swimlane;fontStyle=0;childLayout=stackLayout;horizontal=1;startSize=30;horizontalStack=0;resizeParent=1;resizeParentMax=0;resizeLast=0;collapsible=1;marginBottom=0;whiteSpace=wrap;html=1;" vertex="1" parent="1">
          <mxGeometry x="423.38" y="240" width="140" height="180" as="geometry" />
        </mxCell>
        <mxCell id="ssxeLvnSIk8vrv7X1oER-16" value="-&amp;nbsp;" style="text;strokeColor=none;fillColor=none;align=left;verticalAlign=top;spacingLeft=4;spacingRight=4;overflow=hidden;points=[[0,0.5],[1,0.5]];portConstraint=eastwest;rotatable=0;whiteSpace=wrap;html=1;" vertex="1" parent="ssxeLvnSIk8vrv7X1oER-15">
          <mxGeometry y="30" width="140" height="90" as="geometry" />
        </mxCell>
        <mxCell id="ssxeLvnSIk8vrv7X1oER-17" value="+ listarInfo()&lt;br&gt;+ ganancia(): float" style="text;strokeColor=default;fillColor=none;align=left;verticalAlign=top;spacingLeft=4;spacingRight=4;overflow=hidden;points=[[0,0.5],[1,0.5]];portConstraint=eastwest;rotatable=0;whiteSpace=wrap;html=1;" vertex="1" parent="ssxeLvnSIk8vrv7X1oER-15">
          <mxGeometry y="120" width="140" height="60" as="geometry" />
        </mxCell>
        <mxCell id="ssxeLvnSIk8vrv7X1oER-18" value="" style="endArrow=none;html=1;rounded=0;exitX=0.5;exitY=0;exitDx=0;exitDy=0;entryX=0;entryY=0.5;entryDx=0;entryDy=0;" edge="1" parent="1" source="ssxeLvnSIk8vrv7X1oER-12" target="ssxeLvnSIk8vrv7X1oER-11">
          <mxGeometry width="50" height="50" relative="1" as="geometry">
            <mxPoint x="393.69" y="240" as="sourcePoint" />
            <mxPoint x="443.69" y="190" as="targetPoint" />
            <Array as="points">
              <mxPoint x="333.69" y="230" />
              <mxPoint x="413.69" y="230" />
            </Array>
          </mxGeometry>
        </mxCell>
        <mxCell id="ssxeLvnSIk8vrv7X1oER-19" value="" style="endArrow=none;html=1;rounded=0;entryX=0.5;entryY=0;entryDx=0;entryDy=0;exitX=0;exitY=0.5;exitDx=0;exitDy=0;" edge="1" parent="1" source="ssxeLvnSIk8vrv7X1oER-11" target="ssxeLvnSIk8vrv7X1oER-15">
          <mxGeometry width="50" height="50" relative="1" as="geometry">
            <mxPoint x="383.69" y="250" as="sourcePoint" />
            <mxPoint x="433.69" y="200" as="targetPoint" />
            <Array as="points">
              <mxPoint x="413.69" y="230" />
              <mxPoint x="493.69" y="230" />
            </Array>
          </mxGeometry>
        </mxCell>
        <mxCell id="ssxeLvnSIk8vrv7X1oER-20" value="&lt;br style=&quot;font-size: 10px;&quot;&gt;res = monto_sugerido - precio&lt;br style=&quot;font-size: 10px;&quot;&gt;RETORNA res" style="shape=note;whiteSpace=wrap;html=1;backgroundOutline=1;darkOpacity=0.05;spacing=6;verticalAlign=top;align=left;size=18;fontSize=10;" vertex="1" parent="1">
          <mxGeometry x="264" y="460" width="150.31" height="100" as="geometry" />
        </mxCell>
        <mxCell id="ssxeLvnSIk8vrv7X1oER-21" value="&lt;br style=&quot;font-size: 10px;&quot;&gt;res = precio - monto_sugerido&lt;br style=&quot;font-size: 10px;&quot;&gt;RETORNA res" style="shape=note;whiteSpace=wrap;html=1;backgroundOutline=1;darkOpacity=0.05;spacing=6;verticalAlign=top;align=left;size=18;fontSize=10;" vertex="1" parent="1">
          <mxGeometry x="423.38" y="460" width="150" height="100" as="geometry" />
        </mxCell>
        <mxCell id="ssxeLvnSIk8vrv7X1oER-22" value="res = 0&lt;br style=&quot;font-size: 10px;&quot;&gt;PARA CADA t EN transacciones HACER&lt;br&gt;&lt;span style=&quot;white-space: pre;&quot;&gt;&#x9;&lt;/span&gt;SI t.fecha &amp;gt; f1 AND t.fecha &amp;lt; f2 ENT&lt;br&gt;&lt;span style=&quot;white-space: pre;&quot;&gt;&#x9;&lt;span style=&quot;white-space: pre;&quot;&gt;&#x9;&lt;/span&gt;&lt;/span&gt;codigoTransaccion()&lt;br style=&quot;border-color: var(--border-color);&quot;&gt;&lt;span style=&quot;white-space: pre;&quot;&gt;&#x9;&lt;span style=&quot;white-space: pre;&quot;&gt;&#x9;&lt;/span&gt;&lt;/span&gt;fechaTransaccion()&lt;br style=&quot;border-color: var(--border-color);&quot;&gt;&lt;span style=&quot;white-space: pre;&quot;&gt;&#x9;&lt;span style=&quot;white-space: pre;&quot;&gt;&#x9;&lt;/span&gt;&lt;/span&gt;ganancia()&lt;br&gt;&lt;span style=&quot;&quot;&gt;&lt;span style=&quot;white-space: pre;&quot;&gt;&lt;span style=&quot;white-space: pre;&quot;&gt;&#x9;&lt;span style=&quot;white-space: pre;&quot;&gt;&#x9;&lt;/span&gt;&lt;/span&gt;res += ganancia()&lt;br/&gt;&lt;span style=&quot;white-space: pre;&quot;&gt;&#x9;&lt;/span&gt;FIN SI&lt;br/&gt;ESCRIBIR(res)&lt;br/&gt;&lt;/span&gt;&lt;/span&gt;&lt;br style=&quot;font-size: 10px;&quot;&gt;" style="shape=note;whiteSpace=wrap;html=1;backgroundOutline=1;darkOpacity=0.05;spacing=6;verticalAlign=top;align=left;size=18;fontSize=10;" vertex="1" parent="1">
          <mxGeometry x="30" y="220" width="220" height="120" as="geometry" />
        </mxCell>
        <mxCell id="ssxeLvnSIk8vrv7X1oER-23" value="&lt;br style=&quot;font-size: 10px;&quot;&gt;PARA CADA t EN transacciones HACER&lt;br&gt;&lt;span style=&quot;white-space: pre;&quot;&gt;&#x9;&lt;/span&gt;SI t.ganancia() &amp;lt; 0 ENT&lt;br&gt;&lt;span style=&quot;white-space: pre;&quot;&gt;&#x9;&lt;span style=&quot;white-space: pre;&quot;&gt;&#x9;&lt;/span&gt;l&lt;/span&gt;istarInfo()&lt;span style=&quot;&quot;&gt;&lt;span style=&quot;white-space: pre;&quot;&gt;&lt;br&gt;&lt;span style=&quot;white-space: pre;&quot;&gt;&#x9;&lt;/span&gt;FIN SI&lt;br&gt;&lt;/span&gt;&lt;/span&gt;" style="shape=note;whiteSpace=wrap;html=1;backgroundOutline=1;darkOpacity=0.05;spacing=6;verticalAlign=top;align=left;size=18;fontSize=10;" vertex="1" parent="1">
          <mxGeometry x="20" y="380" width="220" height="120" as="geometry" />
        </mxCell>
        <mxCell id="ssxeLvnSIk8vrv7X1oER-24" value="&lt;br style=&quot;font-size: 10px;&quot;&gt;PARA CADA t EN transacciones HACER&lt;br&gt;&lt;span style=&quot;white-space: pre;&quot;&gt;&#x9;&lt;/span&gt;SI t.ganancia() &amp;gt; 0 ENT&lt;br&gt;&lt;span style=&quot;white-space: pre;&quot;&gt;&#x9;&lt;span style=&quot;white-space: pre;&quot;&gt;&#x9;&lt;/span&gt;l&lt;/span&gt;istarInfo()&lt;span style=&quot;&quot;&gt;&lt;span style=&quot;white-space: pre;&quot;&gt;&lt;br&gt;&lt;span style=&quot;white-space: pre;&quot;&gt;&#x9;&lt;/span&gt;FIN SI&lt;br&gt;&lt;/span&gt;&lt;/span&gt;" style="shape=note;whiteSpace=wrap;html=1;backgroundOutline=1;darkOpacity=0.05;spacing=6;verticalAlign=top;align=left;size=18;fontSize=10;" vertex="1" parent="1">
          <mxGeometry x="20" y="520" width="220" height="120" as="geometry" />
        </mxCell>
        <mxCell id="ssxeLvnSIk8vrv7X1oER-25" value="" style="rhombus;whiteSpace=wrap;html=1;gradientColor=default;fillColor=#0a0a0a;" vertex="1" parent="1">
          <mxGeometry x="160" y="20" width="40.01" height="30" as="geometry" />
        </mxCell>
        <mxCell id="ssxeLvnSIk8vrv7X1oER-26" value="" style="endArrow=none;html=1;rounded=0;entryX=1;entryY=0.5;entryDx=0;entryDy=0;exitX=0.011;exitY=0.08;exitDx=0;exitDy=0;exitPerimeter=0;" edge="1" parent="1" source="ssxeLvnSIk8vrv7X1oER-5" target="ssxeLvnSIk8vrv7X1oER-25">
          <mxGeometry width="50" height="50" relative="1" as="geometry">
            <mxPoint x="360" y="130" as="sourcePoint" />
            <mxPoint x="410" y="80" as="targetPoint" />
          </mxGeometry>
        </mxCell>
        <mxCell id="ssxeLvnSIk8vrv7X1oER-27" value="&lt;div style=&quot;text-align: justify;&quot;&gt;*&lt;span style=&quot;white-space: pre;&quot;&gt;&#x9;&lt;/span&gt;transacciones&lt;span style=&quot;white-space: pre;&quot;&gt;&#x9;&lt;span style=&quot;white-space: pre;&quot;&gt;&#x9;&lt;/span&gt;&lt;/span&gt;0&lt;/div&gt;" style="text;html=1;strokeColor=none;fillColor=none;align=center;verticalAlign=middle;whiteSpace=wrap;rounded=0;" vertex="1" parent="1">
          <mxGeometry x="200.01" y="10" width="139.99" height="30" as="geometry" />
        </mxCell>
        <mxCell id="ssxeLvnSIk8vrv7X1oER-28" value="" style="rhombus;whiteSpace=wrap;html=1;" vertex="1" parent="1">
          <mxGeometry x="483.69" y="25" width="40.01" height="30" as="geometry" />
        </mxCell>
        <mxCell id="ssxeLvnSIk8vrv7X1oER-29" value="" style="endArrow=none;html=1;rounded=0;entryX=1;entryY=0.5;entryDx=0;entryDy=0;exitX=0.001;exitY=0.078;exitDx=0;exitDy=0;exitPerimeter=0;" edge="1" parent="1" target="ssxeLvnSIk8vrv7X1oER-28" source="ssxeLvnSIk8vrv7X1oER-8">
          <mxGeometry width="50" height="50" relative="1" as="geometry">
            <mxPoint x="660" y="39" as="sourcePoint" />
            <mxPoint x="733.69" y="85" as="targetPoint" />
          </mxGeometry>
        </mxCell>
        <mxCell id="ssxeLvnSIk8vrv7X1oER-30" value="&lt;div style=&quot;text-align: justify;&quot;&gt;1&lt;span style=&quot;white-space: pre;&quot;&gt;&#x9;&lt;/span&gt;obra&amp;nbsp;&lt;span style=&quot;white-space: pre;&quot;&gt;&lt;span style=&quot;white-space: pre;&quot;&gt;&#x9;&lt;/span&gt;&lt;/span&gt;0&lt;/div&gt;" style="text;html=1;strokeColor=none;fillColor=none;align=center;verticalAlign=middle;whiteSpace=wrap;rounded=0;" vertex="1" parent="1">
          <mxGeometry x="523.7" y="20" width="126.3" height="20" as="geometry" />
        </mxCell>
        <mxCell id="ssxeLvnSIk8vrv7X1oER-31" value="" style="endArrow=none;html=1;rounded=0;entryX=1;entryY=0.5;entryDx=0;entryDy=0;exitX=0;exitY=0;exitDx=202;exitDy=0;exitPerimeter=0;" edge="1" parent="1" source="ssxeLvnSIk8vrv7X1oER-22" target="ssxeLvnSIk8vrv7X1oER-4">
          <mxGeometry width="50" height="50" relative="1" as="geometry">
            <mxPoint x="480" y="390" as="sourcePoint" />
            <mxPoint x="530" y="340" as="targetPoint" />
          </mxGeometry>
        </mxCell>
        <mxCell id="ssxeLvnSIk8vrv7X1oER-32" value="" style="endArrow=none;html=1;rounded=0;entryX=0.481;entryY=1.01;entryDx=0;entryDy=0;entryPerimeter=0;exitX=0;exitY=0;exitDx=0;exitDy=0;exitPerimeter=0;" edge="1" parent="1" source="ssxeLvnSIk8vrv7X1oER-23" target="ssxeLvnSIk8vrv7X1oER-4">
          <mxGeometry width="50" height="50" relative="1" as="geometry">
            <mxPoint x="10" y="240" as="sourcePoint" />
            <mxPoint x="170" y="135" as="targetPoint" />
            <Array as="points">
              <mxPoint x="20" y="210" />
            </Array>
          </mxGeometry>
        </mxCell>
        <mxCell id="ssxeLvnSIk8vrv7X1oER-33" value="" style="endArrow=none;html=1;rounded=0;entryX=0;entryY=0.5;entryDx=0;entryDy=0;exitX=0;exitY=0.5;exitDx=0;exitDy=0;exitPerimeter=0;" edge="1" parent="1" source="ssxeLvnSIk8vrv7X1oER-24" target="ssxeLvnSIk8vrv7X1oER-4">
          <mxGeometry width="50" height="50" relative="1" as="geometry">
            <mxPoint x="30" y="390" as="sourcePoint" />
            <mxPoint x="97" y="181" as="targetPoint" />
            <Array as="points">
              <mxPoint y="580" />
              <mxPoint y="360" />
              <mxPoint x="10" y="150" />
            </Array>
          </mxGeometry>
        </mxCell>
        <mxCell id="ssxeLvnSIk8vrv7X1oER-34" style="edgeStyle=orthogonalEdgeStyle;rounded=0;orthogonalLoop=1;jettySize=auto;html=1;entryX=0;entryY=0;entryDx=150;entryDy=18;entryPerimeter=0;" edge="1" parent="1" source="ssxeLvnSIk8vrv7X1oER-17" target="ssxeLvnSIk8vrv7X1oER-21">
          <mxGeometry relative="1" as="geometry" />
        </mxCell>
        <mxCell id="ssxeLvnSIk8vrv7X1oER-36" style="edgeStyle=orthogonalEdgeStyle;rounded=0;orthogonalLoop=1;jettySize=auto;html=1;entryX=0;entryY=0;entryDx=66.155;entryDy=0;entryPerimeter=0;" edge="1" parent="1" source="ssxeLvnSIk8vrv7X1oER-12" target="ssxeLvnSIk8vrv7X1oER-20">
          <mxGeometry relative="1" as="geometry" />
        </mxCell>
      </root>
    </mxGraphModel>
  </diagram>
</mxfile>
